<svg width="48" height="48" viewBox="0 0 48 48" fill="none" xmlns="http://www.w3.org/2000/svg">
<rect width="48" height="48" rx="6" fill="#BE95DB"/>
<path d="M12.0747 17.0548C12.0747 14.2732 14.3296 12 17.1112 12C19.8928 12 22.1477 14.2549 22.1477 17.0365V22.1464H17.1479C14.3461 22.1464 12.0747 19.8566 12.0747 17.0548Z" fill="url(#paint0_linear_2_2895)" stroke="white"/>
<path d="M35.9145 30.9454C35.9088 33.727 33.6491 35.9954 30.8675 35.9896C28.086 35.9837 25.8357 33.7241 25.8415 30.9425L25.852 25.8326L30.8519 25.8431C33.6537 25.849 35.9203 28.1435 35.9145 30.9454Z" fill="url(#paint1_linear_2_2895)" stroke="white"/>
<path d="M30.8462 12C33.6278 12 35.8827 14.2732 35.8827 17.0548C35.8827 19.8566 33.6113 22.1464 30.8095 22.1464H25.8096V17.0365C25.8096 14.2549 28.0646 12 30.8462 12Z" fill="url(#paint2_linear_2_2895)" stroke="white"/>
<path d="M17.1112 35.9661C14.3296 35.9602 12.0794 33.6823 12.0852 30.9007C12.091 28.0989 14.367 25.8139 17.1689 25.8198L22.1687 25.8303L22.1582 30.9402C22.1524 33.7217 19.8928 35.9719 17.1112 35.9661Z" fill="url(#paint3_linear_2_2895)" stroke="white"/>
<defs>
<linearGradient id="paint0_linear_2_2895" x1="17.1112" y1="12" x2="17.1112" y2="22.1464" gradientUnits="userSpaceOnUse">
<stop stop-color="white" stop-opacity="0.6"/>
<stop offset="1" stop-color="white" stop-opacity="0.9"/>
</linearGradient>
<linearGradient id="paint1_linear_2_2895" x1="30.8675" y1="35.9896" x2="30.8888" y2="25.8432" gradientUnits="userSpaceOnUse">
<stop stop-color="white" stop-opacity="0.6"/>
<stop offset="1" stop-color="white" stop-opacity="0.9"/>
</linearGradient>
<linearGradient id="paint2_linear_2_2895" x1="35.8827" y1="17.0732" x2="25.8096" y2="17.0732" gradientUnits="userSpaceOnUse">
<stop stop-color="white" stop-opacity="0.6"/>
<stop offset="1" stop-color="white" stop-opacity="0.9"/>
</linearGradient>
<linearGradient id="paint3_linear_2_2895" x1="12.0852" y1="30.8823" x2="22.1582" y2="30.9032" gradientUnits="userSpaceOnUse">
<stop stop-color="white" stop-opacity="0.6"/>
<stop offset="1" stop-color="white" stop-opacity="0.9"/>
</linearGradient>
</defs>
</svg>
